<svg width="1080" height="1080" viewBox="0 0 1080 1080" fill="none" xmlns="http://www.w3.org/2000/svg">
<g clip-path="url(#clip0_3_2)">
<circle cx="540" cy="540" r="540" fill="#00011E"/>
<path d="M466 637.7C462.6 637.7 460.1 636.8 458.5 635C456.9 633 456.1 629.6 456.1 624.8C456.1 620.2 456.8 614.7 458.2 608.3L470.5 545.9C471.1 542.5 471.4 539.7 471.4 537.5C471.4 534.3 470.8 531.9 469.6 530.3C468.6 528.5 467.2 527.6 465.4 527.6C463 527.6 459.8 528.8 455.8 531.2C452 533.6 448 537.1 443.8 541.7C443.6 541.9 443.3 542 442.9 542C442.3 542 441.7 541.7 441.1 541.1C440.7 540.3 440.8 539.7 441.4 539.3C448.2 531.5 454.4 525.8 460 522.2C465.6 518.4 470.8 516.5 475.6 516.5C479 516.5 481.4 517.5 482.8 519.5C484.4 521.3 485.2 524.4 485.2 528.8C485.2 533.4 484.5 539.1 483.1 545.9L471.1 608.3C470.5 611.5 470.2 614.4 470.2 617C470.2 623.4 472.2 626.6 476.2 626.6C478.6 626.6 481.7 625.4 485.5 623C489.3 620.4 493.3 616.9 497.5 612.5C497.7 612.3 498 612.2 498.4 612.2C499.2 612.2 499.8 612.6 500.2 613.4C500.6 614 500.5 614.5 499.9 614.9C486.7 630.1 475.4 637.7 466 637.7ZM484.6 479.9C480.8 479.9 477.8 478.9 475.6 476.9C473.6 474.9 472.6 472 472.6 468.2C472.6 464.8 473.6 462.1 475.6 460.1C477.8 458.1 480.8 457.1 484.6 457.1C488.4 457.1 491.3 458.1 493.3 460.1C495.3 462.1 496.3 464.8 496.3 468.2C496.3 472 495.3 474.9 493.3 476.9C491.3 478.9 488.4 479.9 484.6 479.9ZM639.121 611.9C639.521 611.5 639.821 611.3 640.021 611.3C640.621 611.3 641.121 611.7 641.521 612.5C642.121 613.1 642.121 613.7 641.521 614.3C634.521 622.3 628.321 628.2 622.921 632C617.721 635.8 612.721 637.7 607.921 637.7C604.521 637.7 602.121 636.8 600.721 635C599.321 633 598.621 629.7 598.621 625.1C598.621 621.1 599.221 615.5 600.421 608.3L609.121 560.6C610.521 554.4 611.221 548.7 611.221 543.5C611.221 531.5 606.621 525.5 597.421 525.5C590.621 525.5 583.521 529.8 576.121 538.4C568.921 547 562.021 559.5 555.421 575.9C549.021 592.1 543.821 611.2 539.821 633.2C539.621 634.4 538.821 635.4 537.421 636.2C536.021 637 534.221 637.4 532.021 637.4C529.421 637.4 527.721 637.2 526.921 636.8C526.121 636.6 525.721 636.2 525.721 635.6L526.921 629.3C527.321 627.9 527.821 625.5 528.421 622.1C529.221 618.7 529.821 615.6 530.221 612.8L542.521 545.9C543.121 542.5 543.421 539.7 543.421 537.5C543.421 530.9 541.421 527.6 537.421 527.6C535.021 527.6 531.821 528.8 527.821 531.2C524.021 533.6 520.021 537.1 515.821 541.7C515.621 541.9 515.321 542 514.921 542C514.321 542 513.721 541.7 513.121 541.1C512.721 540.3 512.821 539.7 513.421 539.3C526.621 524.1 538.121 516.5 547.921 516.5C551.121 516.5 553.421 517.5 554.821 519.5C556.221 521.3 556.921 524.4 556.921 528.8C556.921 533 556.321 538.7 555.121 545.9L548.221 585.8C555.421 563.8 564.021 546.6 574.021 534.2C584.221 521.6 594.821 515.3 605.821 515.3C612.421 515.3 617.221 517.1 620.221 520.7C623.421 524.1 625.021 529.5 625.021 536.9C625.021 540.9 624.321 546.9 622.921 554.9L613.021 608.3C612.421 611.5 612.121 614.2 612.121 616.4C612.121 623.2 614.221 626.6 618.421 626.6C622.821 626.6 629.721 621.7 639.121 611.9Z" fill="white"/>
<path d="M484 909.9C484.4 909.5 484.7 909.3 484.9 909.3C485.5 909.3 486 909.7 486.4 910.5C487 911.1 487 911.7 486.4 912.3C479.4 920.3 473.2 926.2 467.8 930C462.6 933.8 457.6 935.7 452.8 935.7C449.4 935.7 447 934.8 445.6 933C444.2 931 443.5 927.7 443.5 923.1C443.5 919.1 444.1 913.5 445.3 906.3L454 858.6C455.4 852.4 456.1 846.7 456.1 841.5C456.1 829.5 451.5 823.5 442.3 823.5C435.5 823.5 428.4 827.8 421 836.4C413.8 845 406.9 857.5 400.3 873.9C393.9 890.1 388.7 909.2 384.7 931.2C384.5 932.4 383.7 933.4 382.3 934.2C380.9 935 379.1 935.4 376.9 935.4C374.3 935.4 372.6 935.2 371.8 934.8C371 934.6 370.6 934.2 370.6 933.6L371.8 927.3C372.2 925.9 372.7 923.5 373.3 920.1C374.1 916.7 374.7 913.6 375.1 910.8L387.4 843.9C388 840.5 388.3 837.7 388.3 835.5C388.3 828.9 386.3 825.6 382.3 825.6C379.9 825.6 376.7 826.8 372.7 829.2C368.9 831.6 364.9 835.1 360.7 839.7C360.5 839.9 360.2 840 359.8 840C359.2 840 358.6 839.7 358 839.1C357.6 838.3 357.7 837.7 358.3 837.3C371.5 822.1 383 814.5 392.8 814.5C396 814.5 398.3 815.5 399.7 817.5C401.1 819.3 401.8 822.4 401.8 826.8C401.8 831 401.2 836.7 400 843.9L393.1 883.8C400.3 861.8 408.9 844.6 418.9 832.2C429.1 819.6 439.7 813.3 450.7 813.3C457.3 813.3 462.1 815.1 465.1 818.7C468.3 822.1 469.9 827.5 469.9 834.9C469.9 838.9 469.2 844.9 467.8 852.9L457.9 906.3C457.3 909.5 457 912.2 457 914.4C457 921.2 459.1 924.6 463.3 924.6C467.7 924.6 474.6 919.7 484 909.9ZM601.267 814.2C608.067 814.2 611.467 819.3 611.467 829.5C611.467 846.3 603.767 870 588.367 900.6C573.167 931 555.467 958 535.267 981.6C515.267 1005.4 498.567 1017.3 485.167 1017.3C481.767 1017.3 479.067 1016.3 477.067 1014.3C475.067 1012.5 474.267 1009.8 474.667 1006.2C475.667 1001.8 479.167 999.6 485.167 999.6C491.567 999.6 497.967 998.7 504.367 996.9C510.967 995.3 516.567 992.8 521.167 989.4C527.567 985 536.167 975.2 546.967 960L547.267 945.6C547.267 908 544.067 878.8 537.667 858C531.467 837.2 522.967 826.8 512.167 826.8C505.767 826.8 500.567 830.6 496.567 838.2C496.367 838.8 495.767 839.1 494.767 839.1C493.367 839.1 492.767 838.5 492.967 837.3C496.767 829.5 500.667 823.8 504.667 820.2C508.867 816.4 513.667 814.5 519.067 814.5C527.667 814.5 535.067 819.4 541.267 829.2C547.467 838.8 552.167 852.1 555.367 869.1C558.567 885.9 560.167 904.7 560.167 925.5C560.167 932.5 560.067 937.8 559.867 941.4C568.667 927.4 576.467 913.7 583.267 900.3C590.067 886.9 594.467 876.2 596.467 868.2C597.467 863.2 597.967 858.9 597.967 855.3C597.967 847.9 596.567 839.3 593.767 829.5C592.767 826.1 592.267 823.8 592.267 822.6C592.267 820.2 593.067 818.2 594.667 816.6C596.267 815 598.467 814.2 601.267 814.2ZM669.796 936.9C657.196 936.9 647.696 932.4 641.296 923.4C635.096 914.4 631.996 903.4 631.996 890.4C631.996 884 632.596 878 633.796 872.4C636.396 860.2 640.996 849.7 647.596 840.9C654.396 831.9 662.196 825.1 670.996 820.5C679.796 815.7 688.596 813.3 697.396 813.3C704.796 813.3 710.996 815 715.996 818.4C720.996 821.6 723.196 825.6 722.596 830.4C722.396 832.8 721.596 834.9 720.196 836.7C718.796 838.3 716.796 839.1 714.196 839.1C709.796 839.1 706.496 836.2 704.296 830.4C703.496 827.6 701.696 825.1 698.896 822.9C696.096 820.5 692.296 819.3 687.496 819.3C677.296 819.3 668.996 823.4 662.596 831.6C656.396 839.8 652.096 850.4 649.696 863.4C648.296 871.4 647.596 878 647.596 883.2C647.596 896.2 650.396 906.9 655.996 915.3C661.596 923.5 669.896 927.6 680.896 927.6C687.496 927.6 693.296 926.3 698.296 923.7C703.296 921.1 708.596 917.5 714.196 912.9L714.796 912.6C715.396 912.6 715.896 913 716.296 913.8C716.896 914.6 716.996 915.2 716.596 915.6C700.396 929.8 684.796 936.9 669.796 936.9Z" fill="white"/>
<path d="M272.6 232.3C279.967 232.3 283.65 237.825 283.65 248.875C283.65 267.075 275.308 292.75 258.625 325.9C242.158 358.833 222.983 388.083 201.1 413.65C179.433 439.433 161.342 452.325 146.825 452.325C143.142 452.325 140.217 451.242 138.05 449.075C135.883 447.125 135.017 444.2 135.45 440.3C136.533 435.533 140.325 433.15 146.825 433.15C153.758 433.15 160.692 432.175 167.625 430.225C174.775 428.492 180.842 425.783 185.825 422.1C192.758 417.333 202.075 406.717 213.775 390.25L214.1 374.65C214.1 333.917 210.633 302.283 203.7 279.75C196.983 257.217 187.775 245.95 176.075 245.95C169.142 245.95 163.508 250.067 159.175 258.3C158.958 258.95 158.308 259.275 157.225 259.275C155.708 259.275 155.058 258.625 155.275 257.325C159.392 248.875 163.617 242.7 167.95 238.8C172.5 234.683 177.7 232.625 183.55 232.625C192.867 232.625 200.883 237.933 207.6 248.55C214.317 258.95 219.408 273.358 222.875 291.775C226.342 309.975 228.075 330.342 228.075 352.875C228.075 360.458 227.967 366.2 227.75 370.1C237.283 354.933 245.733 340.092 253.1 325.575C260.467 311.058 265.233 299.467 267.4 290.8C268.483 285.383 269.025 280.725 269.025 276.825C269.025 268.808 267.508 259.492 264.475 248.875C263.392 245.192 262.85 242.7 262.85 241.4C262.85 238.8 263.717 236.633 265.45 234.9C267.183 233.167 269.567 232.3 272.6 232.3ZM401.115 245.3C401.115 252.017 397.54 258.517 390.39 264.8C383.24 270.867 373.706 276.283 361.79 281.05C349.873 285.6 337.09 288.958 323.44 291.125C322.356 296.542 321.815 302.608 321.815 309.325C321.815 323.192 324.848 334.242 330.915 342.475C336.981 350.492 345.648 354.5 356.915 354.5C369.481 354.5 380.64 350.925 390.39 343.775H391.04C391.69 343.775 392.231 344.1 392.665 344.75C393.315 345.4 393.315 346.05 392.665 346.7C377.281 358.833 361.79 364.9 346.19 364.9C332.756 364.9 322.573 360.567 315.64 351.9C308.706 343.233 305.24 331.967 305.24 318.1C305.24 313.117 305.781 307.375 306.865 300.875C308.815 290.042 313.365 279.208 320.515 268.375C327.665 257.542 336.44 248.658 346.84 241.725C357.456 234.792 368.506 231.325 379.99 231.325C386.706 231.325 391.906 232.625 395.59 235.225C399.273 237.608 401.115 240.967 401.115 245.3ZM366.015 240.1C355.181 240.1 346.19 244.433 339.04 253.1C332.106 261.767 327.231 272.925 324.415 286.575C340.448 283.975 353.556 280.075 363.74 274.875C373.923 269.675 379.99 263.283 381.94 255.7C382.373 254.617 382.59 253.1 382.59 251.15C382.59 247.25 380.965 244.433 377.715 242.7C374.465 240.967 370.565 240.1 366.015 240.1ZM438.446 364.575C430.863 364.575 424.255 362.842 418.621 359.375C412.988 355.908 410.171 351.683 410.171 346.7C410.171 343.883 411.038 341.608 412.771 339.875C414.505 338.142 416.563 337.275 418.946 337.275C420.463 337.275 421.655 337.817 422.521 338.9C423.605 339.983 424.905 341.825 426.421 344.425C428.805 348.975 431.296 352.442 433.896 354.825C436.713 357.208 441.046 358.4 446.896 358.4C453.396 358.4 458.596 356.667 462.496 353.2C466.396 349.517 468.78 344.1 469.646 336.95C469.863 335.867 469.971 334.35 469.971 332.4C469.971 326.117 468.238 320.808 464.771 316.475C461.305 311.925 455.996 306.617 448.846 300.55C441.913 294.7 436.713 289.608 433.246 285.275C429.78 280.725 428.046 275.417 428.046 269.35C428.046 268.267 428.263 266.425 428.696 263.825C430.43 253.858 435.413 246.167 443.646 240.75C452.096 235.117 461.088 232.3 470.621 232.3C477.338 232.3 483.08 233.708 487.846 236.525C492.83 239.342 495.321 242.592 495.321 246.275C495.321 249.308 494.346 251.583 492.396 253.1C490.663 254.617 488.713 255.375 486.546 255.375C484.596 255.375 482.971 254.942 481.671 254.075C480.371 252.992 478.638 251.258 476.471 248.875C474.088 245.842 471.596 243.458 468.996 241.725C466.613 239.992 463.363 239.125 459.246 239.125C454.046 239.125 449.713 240.642 446.246 243.675C442.78 246.492 441.046 251.042 441.046 257.325C441.046 263.175 442.78 268.483 446.246 273.25C449.713 277.8 454.805 283 461.521 288.85C468.455 295.133 473.763 300.767 477.446 305.75C481.13 310.517 482.971 316.15 482.971 322.65C482.971 329.8 480.913 336.625 476.796 343.125C472.68 349.408 467.155 354.608 460.221 358.725C453.505 362.625 446.246 364.575 438.446 364.575ZM639.573 335.975C640.007 335.542 640.44 335.325 640.873 335.325C641.523 335.325 642.065 335.758 642.498 336.625C642.932 337.275 642.823 337.925 642.173 338.575C634.59 347.242 627.873 353.633 622.023 357.75C616.39 361.867 610.973 363.925 605.773 363.925C602.09 363.925 599.49 362.95 597.973 361C596.457 358.833 595.698 355.258 595.698 350.275C595.698 345.942 596.348 339.875 597.648 332.075L607.073 280.4C608.373 273.25 609.023 267.075 609.023 261.875C609.023 248.875 604.148 242.375 594.398 242.375C587.032 242.375 579.34 247.033 571.323 256.35C563.523 265.667 556.048 279.208 548.898 296.975C541.965 314.525 536.332 335.217 531.998 359.05C531.782 360.35 530.915 361.433 529.398 362.3C527.882 363.167 525.932 363.6 523.548 363.6C518.998 363.6 516.723 362.95 516.723 361.65L518.023 354.825C518.457 353.308 518.998 350.708 519.648 347.025C520.515 343.342 521.165 339.983 521.598 336.95L555.398 157.225C555.832 154.192 556.048 152.242 556.048 151.375C556.048 145.958 553.665 143.25 548.898 143.25C544.782 143.25 539.257 144.983 532.323 148.45H531.673C530.807 148.45 530.265 148.017 530.048 147.15C529.832 146.067 530.048 145.308 530.698 144.875L570.673 125.375H571.323C572.19 125.375 572.948 125.7 573.598 126.35C574.248 127 574.465 127.542 574.248 127.975L541.748 305.75C549.765 282.567 559.082 264.367 569.698 251.15C580.532 237.933 591.798 231.325 603.498 231.325C610.432 231.325 615.523 233.275 618.773 237.175C622.24 240.858 623.973 246.817 623.973 255.05C623.973 260.25 623.323 266.642 622.023 274.225L611.298 332.075C610.648 335.542 610.323 338.575 610.323 341.175C610.323 348.325 612.49 351.9 616.823 351.9C621.807 351.9 629.39 346.592 639.573 335.975ZM787.89 336.625C788.107 336.408 788.432 336.3 788.865 336.3C789.515 336.3 790.057 336.733 790.49 337.6C791.14 338.25 791.14 338.792 790.49 339.225C783.123 347.675 776.407 353.958 770.34 358.075C764.273 361.975 758.532 363.925 753.115 363.925C749.648 363.925 747.157 362.95 745.64 361C744.123 358.833 743.365 355.367 743.365 350.6C743.365 346.05 744.015 339.875 745.315 332.075L752.79 288.85C744.99 312.683 735.565 331.425 724.515 345.075C713.682 358.508 702.307 365.225 690.39 365.225C683.24 365.225 677.932 363.383 674.465 359.7C670.998 356.017 669.265 350.167 669.265 342.15C669.265 337.167 670.132 330.558 671.865 322.325L683.565 264.475C684.215 260.792 684.54 257.758 684.54 255.375C684.54 251.908 683.89 249.308 682.59 247.575C681.507 245.625 679.99 244.65 678.04 244.65C673.273 244.65 665.798 249.958 655.615 260.575C655.182 261.008 654.748 261.225 654.315 261.225C653.665 261.225 653.123 260.9 652.69 260.25C652.257 259.383 652.365 258.625 653.015 257.975C660.598 249.308 667.207 242.917 672.84 238.8C678.69 234.683 684.215 232.625 689.415 232.625C692.882 232.625 695.482 233.708 697.215 235.875C698.948 237.825 699.815 241.183 699.815 245.95C699.815 250.067 698.948 256.242 697.215 264.475L686.815 316.15C685.298 323.083 684.54 329.367 684.54 335C684.54 347.783 689.523 354.175 699.49 354.175C706.857 354.175 714.44 349.517 722.24 340.2C730.257 330.883 737.732 317.45 744.665 299.9C751.815 282.133 757.557 261.333 761.89 237.5C762.107 236.2 762.973 235.117 764.49 234.25C766.007 233.383 767.957 232.95 770.34 232.95C774.89 232.95 777.165 233.6 777.165 234.9L775.865 241.725C775.432 243.242 774.782 245.842 773.915 249.525C773.265 253.208 772.723 256.567 772.29 259.6L758.965 332.075C758.315 335.542 757.99 338.575 757.99 341.175C757.99 348.325 760.157 351.9 764.49 351.9C767.09 351.9 770.448 350.6 774.565 348C778.898 345.4 783.34 341.608 787.89 336.625ZM929.887 335.975C930.104 335.758 930.429 335.65 930.862 335.65C931.512 335.65 932.054 336.083 932.487 336.95C932.92 337.6 932.92 338.142 932.487 338.575C924.904 347.242 918.187 353.633 912.337 357.75C906.704 361.867 901.287 363.925 896.087 363.925C892.62 363.925 890.129 362.95 888.612 361C887.095 358.833 886.337 355.367 886.337 350.6C886.337 346.05 886.987 339.875 888.287 332.075L894.462 296C884.279 316.8 872.687 333.592 859.687 346.375C846.904 358.942 834.77 365.225 823.287 365.225C810.287 365.225 803.787 357.208 803.787 341.175C803.787 339.442 804.004 336.192 804.437 331.425C806.604 316.042 812.237 300.55 821.337 284.95C830.654 269.35 841.487 256.567 853.837 246.6C866.187 236.417 877.887 231.325 888.937 231.325C893.054 231.325 896.954 232.083 900.637 233.6C904.32 235.117 907.354 237.392 909.737 240.425C913.854 236.742 916.237 232.842 916.887 228.725C917.104 228.075 917.862 227.858 919.162 228.075C920.462 228.292 921.004 228.617 920.787 229.05L901.937 332.075C901.287 335.542 900.962 338.575 900.962 341.175C900.962 348.325 903.02 351.9 907.137 351.9C912.12 351.9 919.704 346.592 929.887 335.975ZM832.712 351.25C840.729 351.25 849.395 347.133 858.712 338.9C868.029 330.667 876.37 320.158 883.737 307.375C891.32 294.375 896.412 281.592 899.012 269.025C899.445 267.292 899.662 264.908 899.662 261.875C899.662 255.808 897.929 250.933 894.462 247.25C890.995 243.567 886.012 241.725 879.512 241.725C871.495 241.725 863.262 245.192 854.812 252.125C846.362 259.058 838.887 268.483 832.387 280.4C826.104 292.317 821.879 305.425 819.712 319.725C819.062 324.275 818.737 328.392 818.737 332.075C818.737 344.858 823.395 351.25 832.712 351.25Z" fill="white"/>
</g>
<defs>
<clipPath id="clip0_3_2">
<rect width="1080" height="1080" fill="white"/>
</clipPath>
</defs>
</svg>
